<?xml version="1.0" standalone="no"?>
<!DOCTYPE svg PUBLIC "-//W3C//DTD SVG 20010904//EN"
 "http://www.w3.org/TR/2001/REC-SVG-20010904/DTD/svg10.dtd">
<svg version="1.0" xmlns="http://www.w3.org/2000/svg"
 width="832.000000pt" height="832.000000pt" viewBox="0 0 832.000000 832.000000"
 preserveAspectRatio="xMidYMid meet">
<metadata>
Created by potrace 1.14, written by Peter Selinger 2001-2017
</metadata>
<g transform="translate(0.000000,832.000000) scale(0.100000,-0.100000)"
fill="#000000" stroke="none">
<path d="M4018 7905 c-2 -1 -55 -5 -118 -9 -63 -4 -131 -9 -150 -11 -223 -28
-373 -56 -555 -105 -149 -39 -387 -118 -402 -133 -3 -4 -12 -7 -18 -7 -7 0
-43 -14 -81 -32 -38 -17 -72 -32 -76 -32 -3 -1 -10 -4 -14 -8 -4 -5 -16 -8
-26 -8 -10 0 -18 -4 -18 -8 0 -5 -18 -15 -40 -22 -22 -7 -40 -17 -40 -22 0 -4
-9 -8 -20 -8 -11 0 -20 -3 -20 -8 0 -4 -17 -15 -37 -24 -108 -50 -431 -254
-441 -280 -2 -4 -8 -8 -12 -8 -13 0 -170 -122 -170 -132 0 -4 -5 -8 -11 -8 -6
0 -16 -6 -23 -12 -8 -7 -46 -42 -86 -78 -141 -126 -326 -319 -408 -425 -53
-70 -77 -101 -82 -105 -24 -23 -150 -208 -150 -221 0 -5 -4 -9 -10 -9 -5 0
-10 -6 -10 -14 0 -8 -4 -16 -8 -18 -4 -1 -37 -52 -72 -113 -127 -218 -243
-473 -321 -707 -63 -189 -137 -513 -155 -678 -3 -30 -7 -57 -9 -60 -10 -15
-20 -243 -20 -440 0 -205 7 -348 21 -455 10 -73 33 -220 38 -245 3 -14 10 -50
16 -80 50 -257 205 -706 303 -875 16 -27 29 -51 28 -53 -3 -5 68 -139 93 -175
14 -21 26 -40 26 -42 0 -7 122 -199 144 -226 12 -14 28 -37 36 -49 19 -30 198
-254 239 -300 95 -106 269 -275 378 -367 12 -10 32 -27 45 -38 12 -11 40 -32
60 -47 42 -31 73 -56 94 -76 8 -7 14 -10 14 -6 0 4 12 -5 26 -19 15 -15 30
-24 35 -21 5 3 9 1 9 -4 0 -9 75 -59 75 -51 0 2 11 -6 25 -19 28 -26 131 -87
143 -84 4 1 7 -2 7 -6 0 -10 50 -37 63 -34 4 1 7 -2 7 -6 0 -9 37 -29 54 -30
5 0 12 -6 17 -14 5 -7 12 -13 16 -13 4 -1 18 -6 31 -13 12 -7 22 -9 22 -5 0 4
5 0 11 -9 5 -10 16 -15 24 -12 8 4 15 1 15 -5 0 -6 8 -11 18 -11 10 0 24 -6
31 -13 6 -6 15 -12 19 -12 8 -1 76 -31 115 -51 15 -9 27 -13 27 -9 0 3 11 -2
25 -11 14 -9 25 -13 25 -10 0 4 11 -1 25 -10 14 -9 25 -13 25 -10 0 4 10 0 23
-9 13 -8 27 -12 30 -9 4 4 12 2 19 -4 7 -5 22 -12 33 -14 11 -1 23 -7 26 -11
3 -4 17 -9 30 -11 13 -1 32 -6 41 -10 9 -4 22 -9 30 -10 7 -2 20 -6 28 -9 8
-4 24 -8 35 -10 11 -2 27 -7 35 -10 8 -4 26 -8 40 -9 14 -2 31 -7 38 -11 7 -5
26 -9 42 -9 17 -1 33 -5 36 -10 3 -4 21 -8 40 -8 20 0 44 -4 54 -10 10 -5 35
-11 56 -13 22 -2 46 -7 54 -11 16 -6 64 -12 215 -24 50 -4 96 -11 103 -15 16
-11 608 -11 625 0 6 4 53 11 102 15 50 5 117 11 150 14 33 3 64 10 70 15 5 5
30 9 56 9 26 0 51 4 54 10 3 5 24 10 45 10 21 0 42 5 45 10 3 6 21 10 40 10
19 0 37 4 40 10 3 5 22 10 41 10 19 0 34 5 34 10 0 6 15 10 34 10 19 0 38 5
41 10 3 6 17 10 30 10 13 0 27 5 30 10 3 6 17 10 30 10 13 0 27 5 30 10 3 6
17 10 30 10 13 0 27 4 30 10 3 5 17 10 31 10 13 0 24 5 24 10 0 6 11 10 24 10
14 0 28 5 31 10 3 6 15 10 26 10 10 0 19 5 19 10 0 6 11 10 25 10 14 0 25 5
25 10 0 6 11 10 25 10 14 0 25 5 25 10 0 6 9 10 20 10 11 0 20 5 20 10 0 6 9
10 19 10 11 0 23 5 26 10 3 6 15 10 26 10 10 0 19 5 19 10 0 6 9 10 20 10 11
0 20 5 20 10 0 6 9 10 20 10 11 0 20 5 20 10 0 6 9 10 20 10 11 0 20 4 20 8 0
5 16 14 35 22 19 8 35 17 35 20 0 3 16 12 35 20 19 8 35 17 35 22 0 4 7 8 15
8 8 0 15 4 15 8 0 5 16 14 35 22 19 8 35 17 35 22 0 4 7 8 15 8 8 0 15 5 15
10 0 6 7 10 15 10 8 0 15 5 15 10 0 6 7 10 15 10 8 0 15 5 15 10 0 6 7 10 15
10 8 0 15 5 15 10 0 6 7 10 15 10 8 0 15 5 15 10 0 6 4 10 10 10 9 0 35 19 65
47 8 7 16 13 19 13 6 0 36 24 61 47 8 7 16 13 20 13 3 0 16 10 29 23 13 12 36
32 52 44 115 89 377 352 482 482 15 19 39 47 55 64 15 16 27 32 27 36 0 3 14
21 30 40 17 18 30 37 30 41 0 4 13 23 30 41 16 19 32 42 36 52 3 9 9 17 13 17
5 0 14 13 21 30 7 16 15 30 19 30 3 0 17 21 31 47 13 27 27 50 31 53 3 3 17
25 29 50 12 25 26 47 30 50 12 8 170 328 170 345 0 8 3 15 8 15 4 0 12 15 18
33 25 70 57 153 63 162 13 18 92 278 122 400 6 22 15 54 20 71 5 17 9 41 9 54
0 13 4 37 9 54 6 17 15 63 21 101 5 39 13 86 15 105 32 206 40 651 17 865 -7
66 -15 140 -18 165 -3 25 -11 77 -19 115 -8 39 -16 84 -19 100 -8 41 -33 152
-45 195 -5 19 -17 62 -26 95 -9 33 -18 67 -20 75 -2 8 -4 16 -5 18 -2 1 -3 5
-5 10 -1 4 -4 14 -8 22 -10 25 -30 95 -29 100 0 3 -4 10 -9 16 -5 7 -12 20
-14 30 -7 35 -30 89 -40 96 -5 4 -7 8 -3 8 7 0 -50 139 -81 193 -11 21 -21 42
-21 48 0 6 -9 24 -21 40 -11 16 -17 29 -13 29 3 0 2 6 -3 13 -11 12 -66 110
-90 159 -8 15 -19 30 -24 33 -5 4 -7 11 -4 16 4 5 2 9 -3 9 -5 0 -17 16 -28
35 -10 19 -22 35 -27 35 -4 0 -5 5 -2 10 3 6 1 10 -4 10 -6 0 -11 6 -11 14 0
8 -6 21 -12 28 -22 23 -68 86 -68 94 0 6 -32 47 -75 97 -8 9 -15 21 -15 27 0
5 -6 13 -13 17 -7 4 -27 28 -45 52 -18 25 -32 41 -32 35 0 -5 -8 5 -19 21 -34
57 -215 247 -225 238 -3 -4 -6 -1 -6 6 0 13 -33 46 -123 127 -98 87 -162 140
-189 156 -15 10 -28 22 -28 28 0 5 -6 10 -14 10 -8 0 -16 4 -18 8 -1 4 -25 23
-53 42 -27 19 -58 43 -69 53 -11 9 -26 17 -33 17 -7 0 -13 4 -13 8 0 5 -12 15
-27 23 -16 8 -30 16 -33 19 -3 3 -39 25 -80 50 -41 24 -82 50 -92 58 -9 7 -23
14 -31 16 -8 1 -21 7 -28 13 -13 10 -251 127 -342 168 -98 43 -419 152 -477
161 -8 1 -28 7 -45 13 -24 8 -155 39 -200 47 -154 27 -245 41 -325 48 -36 4
-87 9 -115 12 -53 5 -432 13 -437 9z"/>
</g>
</svg>
