<svg xmlns="http://www.w3.org/2000/svg" viewBox="0 0 246.55 246.56"><defs><style>.cls-1{fill:#231f20;}.cls-2{fill:#fdfdfd;}.cls-3{fill:#006ff1;}.cls-4{fill:#006bf1;}.cls-5{fill:#0074f2;}.cls-6{fill:#006cf1;}.cls-7{fill:#1478f0;}.cls-8{fill:#0069f0;}.cls-9{fill:#1577ef;}.cls-10{fill:#1875ef;}</style></defs><g id="Layer_2" data-name="Layer 2"><g id="Layer_1-2" data-name="Layer 1"><path class="cls-1" d="M0,120.61c0-2.79.17-5.57.4-8.34A122.86,122.86,0,0,1,9.83,74.84a123.18,123.18,0,0,1,24.69-37.2A122.74,122.74,0,0,1,58.07,18.57a124.28,124.28,0,0,1,16.7-8.71A122.25,122.25,0,0,1,99.06,2.33,119.94,119.94,0,0,1,119.75,0c.29,0,.57,0,.85,0a29.92,29.92,0,0,0,5.27,0,101.55,101.55,0,0,1,12.57.85A122.74,122.74,0,0,1,181.2,14.38,124,124,0,0,1,228.5,59a122.05,122.05,0,0,1,10.85,22.68,122.32,122.32,0,0,1,7.1,46.83,122.26,122.26,0,0,1-17.86,58.92,123.58,123.58,0,0,1-63.83,52,121,121,0,0,1-18.61,5,19.75,19.75,0,0,1-3,.47c-.39.18-.58,0-.65-.38a4.92,4.92,0,0,1,0-.77v-83.5a6.6,6.6,0,0,1,0-.77.55.55,0,0,1,.55-.54c.31,0,.62,0,.93,0h24.37a7,7,0,0,0,2.28-.34c.32-.16.31-.48.38-.78a6,6,0,0,1,.56-2.1,5.71,5.71,0,0,0,.37-3.34c.2-2.13.61-4.23.9-6.34.25-1.81.59-3.61.81-5.42a6.33,6.33,0,0,1,.19-.75,4.57,4.57,0,0,0,.64-2c.58-4,1.27-7.95,1.83-11.94a2.28,2.28,0,0,0-.14-1.86,1.23,1.23,0,0,0-1.11-.41c-1.26,0-2.53,0-3.79,0H144.62c-.43,0-.87,0-1.31,0s-.63,0-.75-.41a.21.21,0,0,1,.22-.16c11,0,22.05,0,32.92,0,.26,0,.12-.18.17-.09s0,.06,0,.07a1.7,1.7,0,0,1-.45,0H143.27a1.64,1.64,0,0,1-.54,0c-.28-.24-.22-.57-.22-.87V98.53a9.58,9.58,0,0,0,.06-2.45,16.4,16.4,0,0,1,2.15-6.79c2.84-5,7.33-7.43,12.81-8.34a16,16,0,0,1,3.85-.3c4.9.55,9.83.13,14.74.25a2.47,2.47,0,0,0,1.47-.39,1.31,1.31,0,0,0,.23-1V52.09c0-1.08-.15-1.27-1.2-1.44-2.69-.44-5.41-.73-8.12-1-2.43-.28-4.87-.5-7.31-.7-2-.16-4-.32-6-.36s-4,0-6,0a45.41,45.41,0,0,0-7.08.52,5,5,0,0,1-.77.08,7.67,7.67,0,0,0-1.52-.09c-.27.06-.57,0-.75.32a8.06,8.06,0,0,1-2.35.7,41.82,41.82,0,0,0-17.86,9A39.84,39.84,0,0,0,107.46,76.2a52.8,52.8,0,0,0-2.69,12A50.53,50.53,0,0,0,104.4,94c0,9.23,0,18.47,0,27.7,0,1.93,0,1.95-1.94,1.95h-28c-.47,0-1-.14-1.37.32a6.11,6.11,0,0,0-.38,2.12v30.29a5.47,5.47,0,0,0,.38,2,1.84,1.84,0,0,0,.22.17,7.28,7.28,0,0,0,2.36.37h26.61c.28,0,.57,0,.85,0,.58,0,.87.22.85.82,0,.23,0,.46,0,.7q0,41.61,0,83.24c0,.45.16.94-.23,1.33a119.94,119.94,0,0,1-28.35-8.08,122.29,122.29,0,0,1-24-13.49,123.69,123.69,0,0,1-26.33-25.61,122.12,122.12,0,0,1-16-28A119.64,119.64,0,0,1,2.3,147.35,121.3,121.3,0,0,1,0,126.8c0-.31,0-.62,0-.92a12.68,12.68,0,0,0,.08-2.75A10.62,10.62,0,0,0,0,120.61Z"/><path class="cls-2" d="M141,48.79a79.45,79.45,0,0,1,15.34-.55c5.15.23,10.27.72,15.39,1.37,1.91.24,3.82.54,5.74.79.5.06.68.24.68.77q0,14.58,0,29.15c0,.23,0,.47-.17.65s-.39.09-.59.09H161.69a1,1,0,0,1-.53-.07c-6.31.24-11.88,2-15.58,7.59a17.2,17.2,0,0,0-2.67,7.27.88.88,0,0,1,0,.6,19.66,19.66,0,0,0-.25,3.07q0,11.36,0,22.72a1.71,1.71,0,0,1-.07.84c.23.32.57.16.85.16q16.23,0,32.46,0c.63,0,.92.12.75.78a25.53,25.53,0,0,1-.38,3.28,2.39,2.39,0,0,0-.1.84.86.86,0,0,1-.06.23c-.14.26-.06.54-.11.81a6.87,6.87,0,0,0-.21,1.27,2.83,2.83,0,0,0-.09.82,1,1,0,0,1-.07.23c-.13.27,0,.57-.11.84-.34,2-.69,4-1,6.07a4.45,4.45,0,0,1-.37,1.56l-1.88,12.53a12.33,12.33,0,0,1-.49,3.19l-.63,3.29c-.28.2-.6.1-.9.1H143.6c-1,0-.93-.1-.93,1q0,42,0,84a1.73,1.73,0,0,1-.09,1,49,49,0,0,1-5.63.82,127.63,127.63,0,0,1-17.26.69,129.28,129.28,0,0,1-15.35-1.37A1.58,1.58,0,0,1,104,245a3.58,3.58,0,0,1-.08-1.22V160.32c0-1.5,0-1.24-1.24-1.25H73.41c-.26,0-.57.16-.79-.13V159h.07c-.25-.2-.13-.48-.13-.72V124c0-.25-.1-.52.11-.74q15.21,0,30.41,0c.74,0,.93-.17.93-.92,0-9.18-.06-18.37,0-27.55a55.44,55.44,0,0,1,3.8-20.56,38.92,38.92,0,0,1,22-22.33,53.88,53.88,0,0,1,9.31-2.78A4.11,4.11,0,0,1,141,48.79Z"/><path class="cls-3" d="M72.62,158.93l18.88,0c3.87,0,7.74,0,11.61,0,.72,0,.88.2.88.9q0,42,0,84V245h-.24q0-42.43,0-84.87c0-.79-.24-1-1-1-9.67,0-19.34,0-29,0C73.35,159.15,72.94,159.25,72.62,158.93Z"/><path class="cls-4" d="M142.57,245c0-.26,0-.52,0-.77V160c0-1.19-.17-1,1-1h26.77l.85,0c-.21.35-.55.17-.82.17H143.9c-1.16,0-1.16,0-1.16,1.14q0,41.78,0,83.55c0,.38-.25.93.44,1.06A.7.7,0,0,1,142.57,245Z"/><path class="cls-3" d="M72.66,123.25q0,13.16,0,26.31c0,3.15,0,6.29,0,9.44a1.15,1.15,0,0,1-.21-.88v-34C72.47,123.83,72.41,123.51,72.66,123.25Z"/><path class="cls-5" d="M142.74,122.93h33.61v.14H142.74c-.05,0-.07-.07-.05-.1S142.73,122.93,142.74,122.93Z"/><ellipse class="cls-5" cx="178.42" cy="65.67" rx="0.05" ry="21.02"/><path class="cls-6" d="M142.74,122.93v.14h-.15c0-.1,0-.2,0-.3q0-12,0-24a15.64,15.64,0,0,1,.34-3c.32.69-.06,1.36-.08,2,0,.4-.09.81-.09,1.23Z"/><path class="cls-7" d="M176,128.3a.07.07,0,0,1,0-.11c.15-.26,0-.57.13-.83a20.05,20.05,0,0,1,.49-3.35c.36.67,0,1.33-.06,2-.56,3.73-1.17,7.46-1.77,11.2-.11.71-.19,1.42-.31,2.13,0,.25,0,.53-.33.65.38-2.59.72-5.18,1.22-7.74.18-.25,0-.57.14-.83,0,0,0-.07,0-.1.16-.27,0-.59.14-.86a2.36,2.36,0,0,1,.17-1.31C176,128.87,175.86,128.56,176,128.3Z"/><path class="cls-8" d="M161.16,81c2,0,3.92,0,5.87,0,3.66,0,7.32,0,11,0-.16.32-.46.16-.68.16q-7.64,0-15.27,0A1.48,1.48,0,0,1,161.16,81Z"/><path class="cls-9" d="M171.81,155.68a21.37,21.37,0,0,1,.49-3.19.87.87,0,0,1,.13.73L172,156.1C171.78,156,171.86,155.81,171.81,155.68Z"/><path class="cls-7" d="M141,48.79l-2,.33-.37,0C139.49,49,140.22,48.47,141,48.79Z"/><path class="cls-10" d="M176.16,127.36a1.25,1.25,0,0,1-.13.83A1.69,1.69,0,0,1,176.16,127.36Z"/><path class="cls-10" d="M176,128.3a1.24,1.24,0,0,1-.14.82Z"/><path class="cls-10" d="M175.7,130.43a1.29,1.29,0,0,1-.14.86A1.68,1.68,0,0,1,175.7,130.43Z"/><path class="cls-10" d="M175.54,131.39a1.15,1.15,0,0,1-.14.83C175.45,131.94,175.49,131.66,175.54,131.39Z"/></g></g></svg>