<svg xmlns="http://www.w3.org/2000/svg" viewBox="0 0 246.56 246.56"><defs><style>.cls-1{fill:#231f20;}.cls-2{fill:#fff;}</style></defs><g id="Layer_2" data-name="Layer 2"><g id="Layer_1-2" data-name="Layer 1"><circle class="cls-1" cx="123.28" cy="123.28" r="123.28"/><path class="cls-2" d="M184.25,89.1a3.66,3.66,0,0,1-.83-3.83c1.92-6.78,3.11-13.71,2.44-20.76a43.14,43.14,0,0,0-2.21-8.71c-.61-1.9-2.07-2.45-4.15-2.27A39.45,39.45,0,0,0,154,65.66a3.47,3.47,0,0,1-4.12,1A83.85,83.85,0,0,0,100,66.58c-1.89.57-3.07.43-4.53-1.08A39.16,39.16,0,0,0,74.12,54.05c-6.83-1.27-8.87.09-10.14,7.07a43,43,0,0,0,.92,19.19c1.34,4.89.54,8.39-2.55,12.63-13.37,18.36-11,42.35,5.05,57,7.84,7.16,17.3,11.25,27.46,13.8,4.66,1.18,9.43,2,13.85,2.86-2.54,2.48-5.5,4.82-7.73,7.71s-3.91,6.53-5.89,9.78a2.43,2.43,0,0,1-1.67,1.05c-6.27.31-12.55.63-18.82.7-3.55,0-6.38-1.75-8.62-4.48-2-2.4-3.89-4.86-6-7.12a24.63,24.63,0,0,0-10.75-6.87c-1.64-.5-3.5-.41-4.1,1.3-.27.78.8,2.44,1.7,3.16a25,25,0,0,1,7.57,10c1.56,3.74,2.87,7.58,4.36,11.35a17.05,17.05,0,0,0,12.1,10.6,36.32,36.32,0,0,0,7.8.92c4.27.15,8.55,0,12.79,0,.21,6.89.42,13.57.62,20.22a109.35,109.35,0,0,0,65.57-1.72V214.4c0-7,.38-14.06-.55-20.94-1.49-11.1-6.57-20.51-16.28-26.87,7.74-2,15.62-3.6,23.16-6.19,10.81-3.72,19.86-10.12,25.7-20.28C198.9,124.05,196.77,104.23,184.25,89.1Zm-43.52,77.44c-.11-.09-.12-.3,0,0Z"/></g></g></svg>