<svg xmlns="http://www.w3.org/2000/svg" viewBox="0 0 246.56 246.56"><defs><style>.cls-1{fill:#231f20;}.cls-2{fill:#fff;}</style></defs><g id="Layer_2" data-name="Layer 2"><g id="Layer_1-2" data-name="Layer 1"><circle class="cls-1" cx="123.28" cy="123.28" r="123.28"/><path class="cls-2" d="M84.21,124.82a39.15,39.15,0,0,1,39.57-39.17c19.67.18,39.31,16.94,38.59,40.2-.66,21-18.19,38.63-39.85,38.18C101.58,163.58,83.26,145.77,84.21,124.82ZM123,151c11.86,1.18,25.73-9.41,26.53-24.63a26.66,26.66,0,0,0-24.26-27.57c-15.79-1.14-27.91,11-28.34,25.75C96.56,137.79,108.32,151.7,123,151Z"/><path class="cls-2" d="M163.73,73.29a9.54,9.54,0,0,1,9.52,9.62c0,5.06-4.94,9.74-10.17,9.64a9.64,9.64,0,0,1,.65-19.26Z"/><path class="cls-2" d="M160.31,200h-74a39.76,39.76,0,0,1-39.71-39.71v-74A39.75,39.75,0,0,1,86.26,46.55h74.05A39.76,39.76,0,0,1,200,86.26v74.05A39.76,39.76,0,0,1,160.31,200Zm-74-137.47A23.74,23.74,0,0,0,62.55,86.26v74.05A23.73,23.73,0,0,0,86.26,184h74.05a23.72,23.72,0,0,0,23.7-23.7v-74a23.73,23.73,0,0,0-23.7-23.71Z"/></g></g></svg>