<svg xmlns="http://www.w3.org/2000/svg" viewBox="0 0 246.56 246.56"><defs><style>.cls-1{fill:#231f20;}.cls-2{fill:#fff;}</style></defs><g id="Layer_2" data-name="Layer 2"><g id="Layer_1-2" data-name="Layer 1"><circle class="cls-1" cx="123.28" cy="123.28" r="123.28"/><path class="cls-2" d="M137.24,105.42c.56-.73,1.12-1.46,1.7-2.18,13.5-16.72,41.92-15,52.36,3.21a37.86,37.86,0,0,1,4.75,18.87c.13,18.68,0,37.37.1,56.05,0,2-.71,2.63-2.63,2.61-7.44-.07-14.88-.1-22.31,0-2.35,0-2.74-1-2.73-3,.07-14.43.1-28.86,0-43.29a46.12,46.12,0,0,0-1.08-9.73c-1.35-6.13-5.57-10-11-10.74-7.52-1-14,1.44-16.64,7.16a31.22,31.22,0,0,0-2.9,11.94c-.34,14.69-.14,29.4-.15,44.09,0,3.56,0,3.57-3.68,3.57-6.73,0-13.46-.06-20.19,0-2,0-2.75-.58-2.74-2.72q.07-42,0-83.94c0-2.17.64-3,2.86-2.92q10.48.17,21,0c2.23,0,3,.75,2.85,2.93-.15,2.61,0,5.23,0,7.85Z"/><path class="cls-2" d="M92.47,139.36c0,13.81-.06,27.62,0,41.42,0,2.4-.58,3.28-3.08,3.24-7.17-.14-14.34-.12-21.51,0-2.31,0-3.25-.54-3.25-3.09q.13-41.55,0-83.11c0-2.46.6-3.46,3.24-3.4,7.17.15,14.34.13,21.51,0,2.53-.05,3.1.95,3.09,3.28-.09,13.89,0,27.79,0,41.68Z"/><path class="cls-2" d="M62.11,66.27A16.34,16.34,0,1,1,78.5,82.86,16.43,16.43,0,0,1,62.11,66.27Z"/></g></g></svg>