<svg xmlns="http://www.w3.org/2000/svg" viewBox="0 0 246.56 246.56"><defs><style>.cls-1{fill:#231f20;}.cls-2{fill:#fff;}</style></defs><g id="Layer_2" data-name="Layer 2"><g id="Layer_1-2" data-name="Layer 1"><circle class="cls-1" cx="123.28" cy="123.28" r="123.28"/><path class="cls-2" d="M45.05,101.76c5.44,3.41,11.41,4.16,18.34,4-11.49-7.51-18.53-17.07-19-30.48a36,36,0,0,1,4.89-19.07c1.87,2.54,3.38,5,5.26,7.07C69,79.48,87.1,89.1,108.52,92.35a65.32,65.32,0,0,0,8.86.41c3.13,0,3.31-.21,2.65-3.3A32.72,32.72,0,0,1,126.1,62c12.44-16.66,35.85-18,49.41-4.09,1.7,1.75,3.41,2.2,5.56,1.28,4.76-2,9.51-4.14,14.27-6.21a6,6,0,0,1,2.66-.61c-1.45,8.24-5.56,14.46-13.38,18.14,3.25,1,6.32.36,9.28-.68s5.85-2.35,8.78-3.53l.66.52c-1.22,2.07-2.1,4.45-3.72,6.13a104.42,104.42,0,0,1-10.74,9.86,6,6,0,0,0-2.72,5.58,109.5,109.5,0,0,1-3.32,32.8c-7,26.93-21.22,49-45.21,63.67-28.26,17.25-57.45,17.37-86.81,2.4A79.08,79.08,0,0,1,44.13,183c-.24-.15-.37-.48-.9-1.21,17-1,31.44-7.45,44.69-17.53Q71.51,162.88,62,149.7a29.89,29.89,0,0,1-5.43-11.39,25.65,25.65,0,0,0,19.31,0C64.23,135,55.05,129,49.38,118.41,46,112.16,44.29,105.52,45.05,101.76Z"/></g></g></svg>