
<svg xmlns="http://www.w3.org/2000/svg" xmlns:xlink="http://www.w3.org/1999/xlink" preserveAspectRatio="xMidYMid meet" version="1.0" viewBox="0.0 -0.0 190.7 191.5" zoomAndPan="magnify" style="fill: rgb(0, 0, 0);" original_string_length="4349"><g id="__id145_sf28ln0o9w"><path d="M190.68,88.387c0.005-0.07-0.009-0.137-0.031-0.2c-0.001-0.004,0.001-0.008-0.001-0.012l-19.014-49.939 c-0.003-0.007-0.01-0.01-0.013-0.017c-0.032-0.074-0.075-0.144-0.142-0.196L129.664,4.756c-0.065-0.053-0.145-0.091-0.232-0.106 c-0.007-0.001-0.013-0.002-0.019-0.002L95.282,0.005c-0.067-0.008-0.138-0.003-0.204,0.015L78.811,4.643h-0.463 c-0.093,0-0.181,0.026-0.257,0.072c-0.001,0-0.001,0-0.002,0l-0.414,0.25L37.636,16.347c-0.013,0.004-0.021,0.015-0.033,0.019 c-0.054,0.02-0.102,0.048-0.147,0.086c-0.018,0.015-0.036,0.028-0.052,0.045c-0.009,0.01-0.02,0.014-0.028,0.025L2.313,62.045 c-0.011,0.014-0.013,0.03-0.022,0.045c-0.013,0.02-0.028,0.038-0.037,0.06c-0.006,0.014-0.008,0.029-0.013,0.043 c-0.009,0.027-0.014,0.054-0.018,0.082c-0.003,0.017-0.011,0.031-0.012,0.048l-2.208,40.036c-0.002,0.035,0,0.071,0.005,0.106 l3.233,20.248c0.004,0.027,0.018,0.049,0.026,0.075c0.005,0.017,0.004,0.035,0.011,0.051c0.002,0.004,0.006,0.007,0.008,0.012 c0.002,0.005,0.002,0.011,0.005,0.016l16.324,31.097c0.028,0.054,0.066,0.102,0.112,0.143l19.146,16.929 c0.031,0.035,0.065,0.065,0.103,0.09l22.14,14.924c0.061,0.041,0.13,0.067,0.203,0.079l34.735,5.402c0,0,0,0,0,0h0l0.005,0.001 c0,0,0.001,0,0.001,0c0.003,0,0.003,0.001,0.006,0.001c0.026,0.004,0.051,0.006,0.077,0.006c0,0,0,0,0,0c0,0,0,0,0,0 c0,0,0,0,0.001,0c0.034,0,0.069-0.004,0.102-0.011c0,0,0.001,0,0.002-0.001h0c0.001,0,0.002,0,0.002,0c0.001,0,0.001,0,0.002-0.001 h0c0,0,0.001,0,0.002,0c0.002-0.001,0.005-0.001,0.008-0.002c0,0,0,0,0.001,0c0.001,0.001,0.003-0.001,0.002-0.001 c0,0,0.001,0,0.001,0l0.002-0.001c0,0,0.001,0,0.001,0c0.001,0,0.001-0.001,0.002-0.001h0c0,0,0.001,0,0.002,0 c0,0.001,0.001-0.001,0.002-0.001c0.002-0.001,0.003-0.001,0.005-0.002l56.76-16.59c0.021-0.006,0.033-0.027,0.052-0.036 c0.055-0.024,0.098-0.056,0.141-0.098c0.019-0.018,0.048-0.023,0.064-0.044l34.531-45.547c0.055-0.073,0.079-0.156,0.09-0.241 c0.001-0.01,0.01-0.017,0.011-0.027L190.68,88.387z M186.958,128.505l-14.935,3.776l17.459-41.009L186.958,128.505z M126.357,122.695l-55.031-19.367l41.505-29.893L126.357,122.695z M112.833,71.822L71.445,44.745l53.812-15.397L112.833,71.822z M112.241,72.629l-41.484,29.878V45.49L112.241,72.629z M69.757,102.68L22.678,79.569l47.079-34.025V102.68z M79.953,158.087 l-44.879-25.152l34.847-28.53L79.953,158.087z M70.908,104.242l55.147,19.408l-45.071,34.505L70.908,104.242z M126.659,124.446 l2.907,41.261l-47.681-6.984L126.659,124.446z M127.3,122.349l-13.501-49.17l45.914,4.589L127.3,122.349z M160.353,78.588 l10.183,53.776l-42.588-9.206L160.353,78.588z M171.352,131.302l-10.067-53.166l28.23,10.504L171.352,131.302z M160.424,76.206 L127.147,29.38l43.401,9.413L160.424,76.206z M159.585,76.751l-45.812-4.579l12.41-42.425L159.585,76.751z M70.913,43.858 l7.795-37.98l45.902,22.615L70.913,43.858z M69.881,43.912L34.67,32.137L77.628,6.163L69.881,43.912z M69.175,44.73L22.526,78.444 l11.315-45.53L69.175,44.73z M21.428,78.716L3.437,62.338l29.139-28.48L21.428,78.716z M33.04,32.006L7.441,57.026l29.164-37.863 L33.04,32.006z M21.114,79.783L4.193,120.239l-0.964-56.74L21.114,79.783z M21.576,81.269l11.921,50.98l-29.096-9.916L21.576,81.269 z M22.438,80.564l46.9,23.024l-34.844,28.529L22.438,80.564z M79.343,158.892l-39.675,11.177l-4.849-36.13L79.343,158.892z M80.373,159.641l14.785,30.515l-54.266-19.393L80.373,159.641z M96.33,190.28l-14.828-30.602l47.321,6.932L96.33,190.28z M130.54,165.299l-2.901-41.185l42.405,9.167L130.54,165.299z M169.876,134.703l-17.244,39.116l-21.518-7.698L169.876,134.703z M171.527,133.438l14.646-3.703l-31.095,41.014L171.527,133.438z M161.231,77.048l10.017-37.017L189.321,87.5L161.231,77.048z M129.718,6.078l39.461,31.394l-42.627-9.245L129.718,6.078z M95.251,1.01l26.712,3.633H82.468L95.251,1.01z M128.771,5.643 l-3.177,22.221L80.494,5.643H128.771z M34.305,31.189l3.875-13.957L74.43,6.928L34.305,31.189z M1.002,102.36L2.444,76.22 l0.668,39.36L1.002,102.36z M20.457,153.417L7.21,128.182l28.822,39.011L20.457,153.417z M5.086,123.623l28.649,9.763l4.76,35.457 L5.086,123.623z M42.815,172.511l48.189,17.221l-29.423-4.576L42.815,172.511z M130.189,166.852l21.094,7.548l-52.53,15.354 L130.189,166.852z" style="fill: rgb(232, 238, 241);"/></g></svg>